<?xml version="1.0" encoding="UTF-8" standalone="no"?>
<!-- Created with Inkscape (http://www.inkscape.org/) -->

<svg
   xmlns:dc="http://purl.org/dc/elements/1.1/"
   xmlns:cc="http://creativecommons.org/ns#"
   xmlns:rdf="http://www.w3.org/1999/02/22-rdf-syntax-ns#"
   xmlns:svg="http://www.w3.org/2000/svg"
   xmlns="http://www.w3.org/2000/svg"
   xmlns:sodipodi="http://sodipodi.sourceforge.net/DTD/sodipodi-0.dtd"
   xmlns:inkscape="http://www.inkscape.org/namespaces/inkscape"
   id="svg2985"
   version="1.1"
   inkscape:version="0.48.5 r10040"
   width="1000"
   height="580.72607"
   xml:space="preserve"
   sodipodi:docname="A.svg"><metadata
     id="metadata2991"><rdf:RDF><cc:Work
         rdf:about=""><dc:format>image/svg+xml</dc:format><dc:type
           rdf:resource="http://purl.org/dc/dcmitype/StillImage" /><dc:title></dc:title></cc:Work></rdf:RDF></metadata><defs
     id="defs2989"><clipPath
       clipPathUnits="userSpaceOnUse"
       id="clipPath3001"><path
         d="M 0,792 612,792 612,0 0,0 0,792 z"
         id="path3003"
         inkscape:connector-curvature="0" /></clipPath><clipPath
       clipPathUnits="userSpaceOnUse"
       id="clipPath3045"><path
         d="m 25,734.44 98.865,0 0,34.603 -98.865,0 0,-34.603 z"
         id="path3047"
         inkscape:connector-curvature="0" /></clipPath><clipPath
       clipPathUnits="userSpaceOnUse"
       id="clipPath3139"><path
         d="m 292.36,520.72 272.51,0 0,172.28 -272.51,0 0,-172.28 z"
         id="path3141"
         inkscape:connector-curvature="0" /></clipPath><clipPath
       clipPathUnits="userSpaceOnUse"
       id="clipPath3259"><path
         d="M 0,0 612,0 612,792 0,792 0,0 z"
         id="path3261"
         inkscape:connector-curvature="0" /></clipPath><clipPath
       clipPathUnits="userSpaceOnUse"
       id="clipPath4171"><path
         inkscape:connector-curvature="0"
         d="m 210.498,192.919 51.234,0 0,29.732 -51.234,0 0,-29.732 z"
         id="path4173" /></clipPath></defs><sodipodi:namedview
     pagecolor="#ffffff"
     bordercolor="#666666"
     borderopacity="1"
     objecttolerance="10"
     gridtolerance="10"
     guidetolerance="10"
     inkscape:pageopacity="0"
     inkscape:pageshadow="2"
     inkscape:window-width="1070"
     inkscape:window-height="1037"
     id="namedview2987"
     showgrid="false"
     fit-margin-left="0.5"
     fit-margin-bottom="0.5"
     fit-margin-top="0.5"
     fit-margin-right="0.5"
     inkscape:zoom="0.39109849"
     inkscape:cx="723.92261"
     inkscape:cy="-34.249238"
     inkscape:window-x="845"
     inkscape:window-y="-10"
     inkscape:window-maximized="0"
     inkscape:current-layer="g2993" /><g
     id="g2993"
     inkscape:groupmode="layer"
     inkscape:label="15796_201309121506"
     transform="matrix(1.25,0,0,-1.25,-451.75079,1501.9444)"><g
       id="g4167"
       transform="matrix(15.599077,0,0,15.599077,-2921.777,-2271.9946)"><g
         id="g4169"
         clip-path="url(#clipPath4171)"><g
           id="g4175"
           transform="translate(217.2142,213.6084)"><path
             d="m 0,0 c -1.405,0 -2.544,1.141 -2.544,2.546 0,1.408 1.139,2.546 2.544,2.546 1.408,0 2.547,-1.138 2.547,-2.546 C 2.547,1.141 1.408,0 0,0 M 4.677,8.835 C 3.859,8.835 3.223,8.411 2.762,7.66 1.946,8.55 0.924,8.973 -0.456,8.973 c -3.424,0 -6.26,-2.789 -6.26,-6.539 0,-3.868 2.809,-6.517 6.105,-6.517 1.381,0 2.557,0.494 3.373,1.407 0.435,-0.888 1.022,-1.288 1.915,-1.288 1.356,0 1.993,0.89 1.993,2.696 l 0,7.429 c 0,1.804 -0.613,2.674 -1.993,2.674"
             style="fill:#77bc1f;fill-opacity:1;fill-rule:nonzero;stroke:none"
             id="path4177"
             inkscape:connector-curvature="0" /></g><g
           id="g4179"
           transform="translate(233.1013,213.4068)"><path
             d="m 0,0 c -1.405,0 -2.545,1.139 -2.545,2.546 0,1.405 1.14,2.545 2.545,2.545 1.407,0 2.547,-1.14 2.547,-2.545 C 2.547,1.139 1.407,0 0,0 m -0.014,9.245 c -3.961,0 -6.823,-2.766 -6.823,-6.609 0,-3.844 2.862,-6.61 6.823,-6.61 3.986,0 6.795,2.766 6.795,6.61 0,3.843 -2.809,6.609 -6.795,6.609"
             style="fill:#77bc1f;fill-opacity:1;fill-rule:nonzero;stroke:none"
             id="path4181"
             inkscape:connector-curvature="0" /></g><g
           id="g4183"
           transform="translate(237.7485,204.2267)"><path
             d="m 0,0 -0.14,0 0,0.574 -0.244,-0.36 -0.028,0 -0.011,0.012 -0.238,0.348 0,-0.574 -0.139,0 0,0.835 0.131,0 L -0.4,0.429 -0.129,0.835 0,0.835 0,0 z m -0.911,0.699 -0.263,0 0,-0.699 -0.141,0 0,0.699 -0.264,0 0,0.136 0.668,0 0,-0.136 z m 0.895,1.028 -0.122,0.002 -3.023,0 L -3.4,1.727 c -0.486,0 -0.89,-0.358 -0.963,-0.823 L -4.364,0.899 c -0.296,-1.683 -1.078,-3.161 -2.349,-4.432 -1.66,-1.658 -3.666,-2.487 -6.027,-2.487 -2.357,0 -4.365,0.829 -6.023,2.487 -1.278,1.279 -2.063,2.766 -2.355,4.46 -0.083,0.455 -0.481,0.8 -0.96,0.8 l -0.075,0.002 -3.306,0 0,-0.002 c -0.538,0 -0.975,-0.437 -0.975,-0.975 0,-0.028 0.001,-0.056 0.004,-0.084 l 0,-0.004 c 0.366,-3.054 1.669,-5.704 3.915,-7.95 2.683,-2.682 5.94,-4.021 9.775,-4.021 3.836,0 7.095,1.339 9.777,4.021 2.247,2.247 3.553,4.899 3.918,7.954 l 0,0 c 0.002,0.028 0.003,0.056 0.003,0.084 0,0.538 -0.436,0.975 -0.974,0.975"
             style="fill:#77bc1f;fill-opacity:1;fill-rule:nonzero;stroke:none"
             id="path4185"
             inkscape:connector-curvature="0" /></g><g
           id="g4187"
           transform="translate(240.7921,209.8635)"><path
             d="m 0,0 c -0.163,-0.186 -0.434,-0.278 -0.812,-0.278 -0.299,0 -0.534,0.063 -0.704,0.19 -0.17,0.125 -0.255,0.354 -0.255,0.686 0,0.277 0.088,0.499 0.267,0.669 0.177,0.17 0.451,0.255 0.822,0.255 0.34,0 0.579,-0.078 0.716,-0.231 C 0.172,1.136 0.242,0.93 0.242,0.669 0.242,0.409 0.162,0.186 0,0"
             style="fill:#77bc1f;fill-opacity:1;fill-rule:nonzero;stroke:none"
             id="path4189"
             inkscape:connector-curvature="0" /></g><g
           id="g4191"
           transform="translate(246.0667,213.1264)"><path
             d="m 0,0 c -0.189,0.078 -0.385,0.135 -0.587,0.171 -0.201,0.036 -0.395,0.055 -0.586,0.055 -0.401,0 -0.692,-0.096 -0.869,-0.286 -0.178,-0.189 -0.267,-0.52 -0.267,-0.995 0,-0.489 0.081,-0.825 0.243,-1.006 0.161,-0.182 0.436,-0.272 0.823,-0.272 0.434,0 0.865,0.099 1.291,0.296 0.125,-0.04 0.22,-0.123 0.284,-0.249 0.063,-0.126 0.094,-0.243 0.094,-0.355 0,-0.331 -0.185,-0.567 -0.556,-0.703 -0.371,-0.141 -0.877,-0.209 -1.516,-0.209 -0.837,0 -1.453,0.183 -1.848,0.551 -0.394,0.366 -0.592,0.945 -0.592,1.734 0,0.442 0.07,0.834 0.208,1.173 0.138,0.34 0.337,0.623 0.598,0.852 0.261,0.229 0.572,0.403 0.935,0.521 0.363,0.119 0.771,0.178 1.22,0.178 0.529,0 0.914,-0.071 1.155,-0.214 C 0.27,1.102 0.391,0.915 0.391,0.687 0.391,0.528 0.357,0.391 0.291,0.273 0.223,0.153 0.126,0.063 0,0"
             style="fill:#77bc1f;fill-opacity:1;fill-rule:nonzero;stroke:none"
             id="path4193"
             inkscape:connector-curvature="0" /></g><g
           id="g4195"
           transform="translate(250.3473,213.1082)"><path
             d="m 0,0 c -0.106,0.226 -0.337,0.336 -0.693,0.336 -0.363,0 -0.617,-0.114 -0.763,-0.342 -0.147,-0.228 -0.219,-0.599 -0.219,-1.114 0,-0.259 0.014,-0.477 0.04,-0.649 0.029,-0.175 0.076,-0.313 0.143,-0.415 0.068,-0.103 0.158,-0.175 0.272,-0.214 0.114,-0.04 0.263,-0.059 0.445,-0.059 0.308,0 0.541,0.109 0.698,0.325 0.159,0.217 0.237,0.596 0.237,1.131 C 0.16,-0.559 0.107,-0.226 0,0 M 1.657,-2.049 C 1.512,-2.385 1.312,-2.663 1.06,-2.882 0.807,-3.105 0.509,-3.27 0.166,-3.38 c -0.344,-0.111 -0.717,-0.167 -1.12,-0.167 -0.797,0 -1.408,0.182 -1.835,0.546 -0.425,0.362 -0.639,0.954 -0.639,1.775 0,0.427 0.069,0.81 0.207,1.149 0.138,0.339 0.331,0.623 0.58,0.853 0.249,0.229 0.549,0.404 0.901,0.526 0.35,0.123 0.74,0.184 1.165,0.184 0.806,0 1.416,-0.185 1.831,-0.556 0.414,-0.371 0.621,-0.967 0.621,-1.788 0,-0.459 -0.073,-0.855 -0.22,-1.191"
             style="fill:#77bc1f;fill-opacity:1;fill-rule:nonzero;stroke:none"
             id="path4197"
             inkscape:connector-curvature="0" /></g><g
           id="g4199"
           transform="translate(259.2697,213.2386)"><path
             d="m 0,0 c -0.079,0.123 -0.26,0.183 -0.544,0.183 -0.198,0 -0.361,-0.043 -0.486,-0.13 -0.127,-0.087 -0.233,-0.209 -0.32,-0.367 l 0,-3.208 c -0.103,-0.056 -0.23,-0.092 -0.385,-0.108 -0.154,-0.014 -0.31,-0.023 -0.467,-0.023 -0.301,0 -0.517,0.039 -0.651,0.118 -0.135,0.079 -0.21,0.202 -0.226,0.367 -0.009,0.181 -0.014,0.379 -0.017,0.592 -0.005,0.214 -0.006,0.451 -0.006,0.71 l 0,1.327 c 0,0.119 -0.006,0.223 -0.019,0.314 -0.011,0.091 -0.039,0.166 -0.083,0.225 -0.042,0.059 -0.108,0.104 -0.194,0.135 -0.088,0.033 -0.209,0.048 -0.368,0.048 -0.197,0 -0.356,-0.043 -0.48,-0.13 -0.122,-0.087 -0.225,-0.209 -0.313,-0.367 l 0,-3.208 c -0.102,-0.056 -0.231,-0.092 -0.385,-0.108 -0.154,-0.014 -0.31,-0.023 -0.467,-0.023 -0.3,0 -0.517,0.039 -0.652,0.118 -0.134,0.079 -0.209,0.202 -0.224,0.367 -0.01,0.181 -0.015,0.379 -0.018,0.592 -0.004,0.214 -0.007,0.451 -0.007,0.71 l 0,0.724 c 0,0.244 0.003,0.462 0.007,0.657 0.003,0.193 0.005,0.349 0.005,0.467 l 0,0.19 -0.603,0.024 C -6.944,0.259 -6.97,0.332 -6.986,0.415 -7.003,0.497 -7.01,0.582 -7.01,0.67 c 0,0.109 0.018,0.207 0.052,0.289 0.036,0.083 0.1,0.151 0.191,0.201 0.091,0.052 0.215,0.092 0.372,0.118 0.159,0.029 0.359,0.042 0.605,0.042 0.236,0 0.467,-0.013 0.692,-0.042 C -4.873,1.252 -4.697,1.21 -4.57,1.154 L -4.701,0.208 c 0.134,0.402 0.344,0.689 0.633,0.864 0.289,0.173 0.658,0.26 1.107,0.26 0.404,0 0.727,-0.061 0.971,-0.183 0.246,-0.123 0.427,-0.323 0.546,-0.599 0.149,0.269 0.363,0.466 0.639,0.593 0.276,0.126 0.6,0.189 0.971,0.189 0.544,0 0.959,-0.113 1.242,-0.338 C 1.692,0.77 1.835,0.368 1.835,-0.207 l 0,-0.462 C 1.835,-0.866 1.833,-1.08 1.83,-1.309 1.825,-1.538 1.822,-1.763 1.818,-1.984 1.814,-2.204 1.807,-2.394 1.8,-2.552 L 2.369,-2.564 C 2.4,-2.618 2.424,-2.684 2.44,-2.76 c 0.015,-0.074 0.023,-0.144 0.023,-0.206 0,-0.458 -0.395,-0.687 -1.184,-0.687 -0.26,0 -0.469,0.012 -0.628,0.035 -0.158,0.025 -0.278,0.072 -0.361,0.143 -0.083,0.071 -0.135,0.167 -0.16,0.289 -0.024,0.124 -0.035,0.287 -0.035,0.492 0,0.094 0.002,0.244 0.005,0.45 0.005,0.206 0.006,0.418 0.006,0.64 0,0.229 0.002,0.441 0.007,0.638 0.004,0.197 0.005,0.34 0.005,0.427 C 0.118,-0.301 0.079,-0.123 0,0"
             style="fill:#77bc1f;fill-opacity:1;fill-rule:nonzero;stroke:none"
             id="path4201"
             inkscape:connector-curvature="0" /></g></g></g></g></svg>