<?xml version="1.0" encoding="UTF-8" standalone="no"?>
<!-- Created with Inkscape (http://www.inkscape.org/) -->

<svg
   xmlns:dc="http://purl.org/dc/elements/1.1/"
   xmlns:cc="http://creativecommons.org/ns#"
   xmlns:rdf="http://www.w3.org/1999/02/22-rdf-syntax-ns#"
   xmlns:svg="http://www.w3.org/2000/svg"
   xmlns="http://www.w3.org/2000/svg"
   xmlns:sodipodi="http://sodipodi.sourceforge.net/DTD/sodipodi-0.dtd"
   xmlns:inkscape="http://www.inkscape.org/namespaces/inkscape"
   width="1000"
   height="292.12323"
   id="svg9429"
   version="1.1"
   inkscape:version="0.48.2 r9819"
   sodipodi:docname="New document 6">
  <defs
     id="defs9431" />
  <sodipodi:namedview
     id="base"
     pagecolor="#ffffff"
     bordercolor="#666666"
     borderopacity="1.0"
     inkscape:pageopacity="0.0"
     inkscape:pageshadow="2"
     inkscape:zoom="1"
     inkscape:cx="628.48225"
     inkscape:cy="-25.302074"
     inkscape:document-units="px"
     inkscape:current-layer="layer1"
     showgrid="false"
     fit-margin-left="0.5"
     fit-margin-top="0.5"
     fit-margin-bottom="0.5"
     fit-margin-right="0.5"
     inkscape:window-width="1920"
     inkscape:window-height="1028"
     inkscape:window-x="-8"
     inkscape:window-y="-8"
     inkscape:window-maximized="1" />
  <metadata
     id="metadata9434">
    <rdf:RDF>
      <cc:Work
         rdf:about="">
        <dc:format>image/svg+xml</dc:format>
        <dc:type
           rdf:resource="http://purl.org/dc/dcmitype/StillImage" />
        <dc:title></dc:title>
      </cc:Work>
    </rdf:RDF>
  </metadata>
  <g
     inkscape:label="Layer 1"
     inkscape:groupmode="layer"
     id="layer1"
     transform="translate(158.57143,-357.67979)">
    <g
       id="g9598"
       transform="translate(10,-52)">
      <path
         sodipodi:nodetypes="cccccccccccccccccccccccccccccccccccccc"
         id="path6815"
         style="fill:#faa81c;fill-opacity:1;fill-rule:nonzero;stroke:none"
         d="m -168.07143,701.30218 42.94308,0 20.83594,-18.75 20.667411,18.75 37.324218,0 20.390625,-16.25 21.1054685,16.25 48.0156255,0 17.576566,-10.96016 13.950777,10.96016 21.789063,0 16.324216,-13 21.6836,13 23.46875,0 19.74609,-11.75 22.19922,11.75 29.34379,0 21.74353,-16.61701 19.26866,16.61701 55.74167,0 19.43796,-17.58928 19.06986,17.58928 81.85725,0 19.61432,-13.3125 18.94498,13.3125 85.94181,0 17.80382,-13.9375 16.16657,13.9375 19.93687,0 16.17264,-13.08148 20.17502,13.08148 55.24448,0 23.61141,-14.8125 21.89541,14.8125 69.00931,0 0,-291.12239 -999.00001,0 z"
         inkscape:connector-curvature="0" />
      <g
         transform="matrix(3.3122684,0,0,-3.3122684,89.343436,660.40576)"
         id="g6827">
        <path
           id="path6829"
           style="fill:#010101;fill-opacity:1;fill-rule:nonzero;stroke:none"
           d="m 0,0 c -0.913,-1.98 -3.195,-3.876 -6.462,-3.876 -3.728,0 -3.952,2.964 -3.952,3.8 0,3.569 3.199,4.481 7.749,5.776 2.359,0.681 2.587,0.757 3.495,1.144 C 0.912,4.939 0.985,2.123 0,0 m 12.535,9.955 c 0,6.541 -0.228,10.261 -3.345,13.376 C 6,26.522 0.68,27.59 -4.258,27.59 c -3.194,0 -6.991,-0.459 -9.879,-1.602 -6.84,-2.657 -6.991,-7.672 -7.219,-12.309 l 11.627,0 c 0,2.279 0.077,6.003 5.394,6.003 4.864,0 4.864,-3.338 4.864,-5.469 -1.291,-0.61 -1.976,-0.916 -7.598,-2.047 -7.675,-1.451 -15.432,-3.12 -15.432,-13.078 0,-7.29 4.18,-10.325 8.566,-11.435 l 9.535,0 c 1.378,0.374 2.678,0.963 3.788,1.858 1.292,0.989 1.83,1.901 2.359,2.813 l 0.418,-4.671 11.485,0 c -0.887,3.258 -1.115,4.44 -1.115,10.598 l 0,11.704"
           inkscape:connector-curvature="0" />
      </g>
      <g
         transform="matrix(3.3122684,0,0,-3.3122684,158.03989,523.22453)"
         id="g6831">
        <path
           id="path6833"
           style="fill:#010101;fill-opacity:1;fill-rule:nonzero;stroke:none"
           d="m 0,0 -0.013,-53.763 12.557,0 L 12.539,0 0,0 z"
           inkscape:connector-curvature="0" />
      </g>
      <g
         transform="matrix(3.3122684,0,0,-3.3122684,292.21027,599.48785)"
         id="g6835">
        <path
           id="path6837"
           style="fill:#010101;fill-opacity:1;fill-rule:nonzero;stroke:none"
           d="m 0,0 0,6.915 -6.612,0 0,4.103 c 0,1.598 0,3.498 4.029,3.498 0.835,0 1.447,-0.08 2.583,-0.156 l 0,8.593 c -1.063,0.303 -3.19,0.984 -6.763,0.984 -6.612,0 -9.35,-2.737 -10.335,-3.952 -2.049,-2.888 -2.131,-7.449 -2.049,-13.07 l -4.718,0 0,-6.915 4.718,0 0,-30.738 12.535,0 L -6.612,0 0,0"
           inkscape:connector-curvature="0" />
      </g>
      <g
         transform="matrix(3.3122684,0,0,-3.3122684,-27.204354,573.81115)"
         id="g6839">
        <path
           id="path6841"
           style="fill:#010101;fill-opacity:1;fill-rule:nonzero;stroke:none"
           d="m 0,0 c -2.127,0.912 -4.331,1.211 -6.608,1.211 -6.617,0 -9.501,-3.187 -10.413,-4.099 l 0,18.16 -12.54,0 -0.004,-53.762 12.535,0 0.009,17.21 c 0,5.625 0.078,7.752 1.063,9.425 1.063,1.825 3.194,2.661 4.942,2.661 1.899,0 3.418,-0.992 4.253,-2.282 0.986,-1.518 0.986,-3.725 0.986,-5.999 l 0.008,-21.015 12.536,0 -0.005,25.193 C 6.616,-8.967 6.461,-2.888 0,0"
           inkscape:connector-curvature="0" />
      </g>
      <g
         transform="matrix(3.3122684,0,0,-3.3122684,614.1505,663.92869)"
         id="g6843">
        <path
           id="path6845"
           style="fill:#010101;fill-opacity:1;fill-rule:nonzero;stroke:none"
           d="m 0,0 c -1.141,-1.522 -2.966,-2.514 -4.942,-2.514 -1.748,0 -3.495,0.765 -4.714,2.358 -1.291,1.745 -2.049,4.868 -2.049,8.593 0,2.581 0.228,6.003 2.127,8.437 0.762,0.908 2.204,2.354 4.709,2.354 2.665,0 6.612,-1.597 6.845,-10.11 C 2.049,4.179 1.136,1.442 0,0 m 1.666,42.48 0,-17.249 c -1.593,1.14 -4.86,3.422 -9.875,3.422 -8.971,0 -16.186,-7.222 -16.186,-20.065 0,-9.446 3.814,-17.408 11.338,-19.871 l 10.263,0 c 2.329,0.773 3.995,1.951 5.071,2.846 l 0.942,-2.846 10.978,0 0.012,53.763 -12.543,0"
           inkscape:connector-curvature="0" />
      </g>
      <g
         transform="matrix(3.3122684,0,0,-3.3122684,514.21307,606.03223)"
         id="g6847">
        <path
           id="path6849"
           style="fill:#010101;fill-opacity:1;fill-rule:nonzero;stroke:none"
           d="m 0,0 c 2.432,0 3.801,-0.383 4.636,-0.605 l 0,10.867 c -1.218,0.378 -2.277,0.676 -4.029,0.676 -6.608,0 -9.268,-4.25 -10.258,-5.847 l 0,5.171 -10.788,0 -0.034,-39.025 11.648,0 0.013,25.572 C -7.297,-1.749 -4.559,0 0,0"
           inkscape:connector-curvature="0" />
      </g>
      <g
         transform="matrix(3.3122684,0,0,-3.3122684,799.15162,658.90166)"
         id="g6851">
        <path
           sodipodi:nodetypes="cccssccssccscsccccc"
           id="path6853"
           style="fill:#010101;fill-opacity:1;fill-rule:nonzero;stroke:none"
           d="m 0,0 c 0,9.807 -8.889,11.401 -11.399,11.855 -1.291,0.231 -6.991,0.988 -8.209,1.223 -1.601,0.223 -3.194,0.757 -3.194,2.354 0,0.303 0.082,2.888 4.257,2.888 2.282,0 7.146,-0.992 10.258,-3.876 l 6.234,6.76 c -4.718,3.952 -10.719,5.932 -16.948,5.932 -8.054,0 -15.88,-4.566 -15.88,-13.301 0,-9.501 8.885,-10.947 13.603,-11.704 5.238,-0.689 6,-0.765 6.986,-1.219 0.84,-0.378 1.671,-1.063 1.671,-2.43 0,-0.836 -0.302,-1.824 -1.593,-2.509 -1.141,-0.61 -2.51,-0.761 -3.646,-0.761 -5.015,0 -9.578,2.434 -12.54,4.859 l -6.611,-6.604 c 4.317,-3.556 8.337,-5.372 12.022,-6.268 l 13.754,-5.3e-5 C -4.998,-11.203053 0,-7.155 0,0"
           inkscape:connector-curvature="0" />
      </g>
      <g
         transform="matrix(3.3122684,0,0,-3.3122684,385.26017,637.73759)"
         id="g6855">
        <path
           id="path6857"
           style="fill:#010101;fill-opacity:1;fill-rule:nonzero;stroke:none"
           d="m 0,0 c -1.481,-5.251 -4.486,-9.656 -9.5,-9.656 -6.995,0 -4.753,8.365 -4.18,10.493 1.605,5.998 4.937,9.647 9.505,9.647 C 2.884,10.484 0.594,2.203 0,0 m 12.557,0.071 c 3.328,12.692 -3.354,20.675 -14.373,20.675 -10.633,0 -21.128,-7.676 -24.611,-20.675 -2.849,-10.619 1.494,-17.109 8.545,-19.261 l 11.636,0 c 8.364,2.215 16.099,8.949 18.803,19.261"
           inkscape:connector-curvature="0" />
      </g>
    </g>
  </g>
</svg>
