<?xml version="1.0" encoding="UTF-8" standalone="no"?>
<!-- Created with Inkscape (http://www.inkscape.org/) -->

<svg
   xmlns:dc="http://purl.org/dc/elements/1.1/"
   xmlns:cc="http://creativecommons.org/ns#"
   xmlns:rdf="http://www.w3.org/1999/02/22-rdf-syntax-ns#"
   xmlns:svg="http://www.w3.org/2000/svg"
   xmlns="http://www.w3.org/2000/svg"
   xmlns:sodipodi="http://sodipodi.sourceforge.net/DTD/sodipodi-0.dtd"
   xmlns:inkscape="http://www.inkscape.org/namespaces/inkscape"
   id="svg2985"
   version="1.1"
   inkscape:version="0.48.5 r10040"
   width="1000"
   height="222.1239"
   xml:space="preserve"
   sodipodi:docname="6752212_assocPDF.pdf"><metadata
     id="metadata2991"><rdf:RDF><cc:Work
         rdf:about=""><dc:format>image/svg+xml</dc:format><dc:type
           rdf:resource="http://purl.org/dc/dcmitype/StillImage" /><dc:title></dc:title></cc:Work></rdf:RDF></metadata><defs
     id="defs2989"><clipPath
       clipPathUnits="userSpaceOnUse"
       id="clipPath2999"><path
         d="m 0,0 841.89,0 0,595.276 L 0,595.276 0,0 z"
         id="path3001"
         inkscape:connector-curvature="0" /></clipPath><clipPath
       clipPathUnits="userSpaceOnUse"
       id="clipPath3011"><path
         d="m 423.532,558.067 c 0,0 -11.399,0 -11.399,-11.4 l 0,0 0,-369.375 c 0,0 0,-11.4 11.399,-11.4 l 0,0 370.558,0 c 0,0 11.4,0 11.4,11.4 l 0,0 0,369.375 c 0,0 0,11.4 -11.4,11.4 l 0,0 -370.558,0 z"
         id="path3013"
         inkscape:connector-curvature="0" /></clipPath><clipPath
       clipPathUnits="userSpaceOnUse"
       id="clipPath3025"><path
         d="m 0,0 841.89,0 0,595.276 L 0,595.276 0,0 z"
         id="path3027"
         inkscape:connector-curvature="0" /></clipPath><clipPath
       clipPathUnits="userSpaceOnUse"
       id="clipPath3049"><path
         d="m 0,0 841.89,0 0,595.276 L 0,595.276 0,0 z"
         id="path3051"
         inkscape:connector-curvature="0" /></clipPath><clipPath
       clipPathUnits="userSpaceOnUse"
       id="clipPath3069"><path
         d="m 0,0 841.89,0 0,595.276 L 0,595.276 0,0 z"
         id="path3071"
         inkscape:connector-curvature="0" /></clipPath><clipPath
       clipPathUnits="userSpaceOnUse"
       id="clipPath3089"><path
         d="m 0,0 841.89,0 0,595.276 L 0,595.276 0,0 z"
         id="path3091"
         inkscape:connector-curvature="0" /></clipPath><clipPath
       clipPathUnits="userSpaceOnUse"
       id="clipPath3109"><path
         d="m 0,0 841.89,0 0,595.276 L 0,595.276 0,0 z"
         id="path3111"
         inkscape:connector-curvature="0" /></clipPath><clipPath
       clipPathUnits="userSpaceOnUse"
       id="clipPath3129"><path
         d="m 0,0 841.89,0 0,595.276 L 0,595.276 0,0 z"
         id="path3131"
         inkscape:connector-curvature="0" /></clipPath><clipPath
       clipPathUnits="userSpaceOnUse"
       id="clipPath3149"><path
         d="m 0,0 841.89,0 0,595.276 L 0,595.276 0,0 z"
         id="path3151"
         inkscape:connector-curvature="0" /></clipPath><clipPath
       clipPathUnits="userSpaceOnUse"
       id="clipPath3173"><path
         d="m 0,0 841.89,0 0,595.276 L 0,595.276 0,0 z"
         id="path3175"
         inkscape:connector-curvature="0" /></clipPath><clipPath
       clipPathUnits="userSpaceOnUse"
       id="clipPath3193"><path
         d="m 0,0 841.89,0 0,595.276 L 0,595.276 0,0 z"
         id="path3195"
         inkscape:connector-curvature="0" /></clipPath><clipPath
       clipPathUnits="userSpaceOnUse"
       id="clipPath3217"><path
         d="m 0,0 841.89,0 0,595.276 L 0,595.276 0,0 z"
         id="path3219"
         inkscape:connector-curvature="0" /></clipPath><clipPath
       clipPathUnits="userSpaceOnUse"
       id="clipPath3241"><path
         d="m 0,0 841.89,0 0,595.276 L 0,595.276 0,0 z"
         id="path3243"
         inkscape:connector-curvature="0" /></clipPath><clipPath
       clipPathUnits="userSpaceOnUse"
       id="clipPath3265"><path
         d="m 0,0 841.89,0 0,595.276 L 0,595.276 0,0 z"
         id="path3267"
         inkscape:connector-curvature="0" /></clipPath><clipPath
       clipPathUnits="userSpaceOnUse"
       id="clipPath3289"><path
         d="m 0,0 841.89,0 0,595.276 L 0,595.276 0,0 z"
         id="path3291"
         inkscape:connector-curvature="0" /></clipPath><clipPath
       clipPathUnits="userSpaceOnUse"
       id="clipPath3313"><path
         d="m 0,0 841.89,0 0,595.276 L 0,595.276 0,0 z"
         id="path3315"
         inkscape:connector-curvature="0" /></clipPath><clipPath
       clipPathUnits="userSpaceOnUse"
       id="clipPath3545"><path
         d="m 0,0 841.89,0 0,595.276 L 0,595.276 0,0 z"
         id="path3547"
         inkscape:connector-curvature="0" /></clipPath><clipPath
       clipPathUnits="userSpaceOnUse"
       id="clipPath3577"><path
         d="m 0,0 841.89,0 0,595.276 L 0,595.276 0,0 z"
         id="path3579"
         inkscape:connector-curvature="0" /></clipPath></defs><sodipodi:namedview
     pagecolor="#ffffff"
     bordercolor="#666666"
     borderopacity="1"
     objecttolerance="10"
     gridtolerance="10"
     guidetolerance="10"
     inkscape:pageopacity="0"
     inkscape:pageshadow="2"
     inkscape:window-width="1044"
     inkscape:window-height="1029"
     id="namedview2987"
     showgrid="false"
     fit-margin-left="0.5"
     fit-margin-bottom="0.5"
     fit-margin-top="0.5"
     fit-margin-right="0.5"
     inkscape:zoom="0.36359443"
     inkscape:cx="517.09359"
     inkscape:cy="-488.5745"
     inkscape:window-x="864"
     inkscape:window-y="-11"
     inkscape:window-maximized="0"
     inkscape:current-layer="g2993" /><g
     id="g2993"
     inkscape:groupmode="layer"
     inkscape:label="6752212_assocPDF"
     transform="matrix(1.25,0,0,-1.25,-336.99998,735.93233)"><g
       id="g3573"
       transform="matrix(4.5802445,0,0,4.5802445,-966.66603,-1473.0802)"><g
         id="g3575"
         clip-path="url(#clipPath3577)"><g
           id="g3581"
           transform="translate(434.3975,446.963)"><path
             d="M 0,0 C 0.456,-1.254 1.632,-3.767 2.487,-4.331 3.251,-4.837 5.913,-4.735 7.43,-4.677 6.457,-5.573 4.339,-6.729 3.944,-8.231 c -0.324,-1.227 0.689,-3.726 1.175,-4.882 -1.014,0.765 -3.384,2.296 -4.295,2.296 -1.191,0 -3.251,-1.905 -4.103,-2.657 0.22,0.896 1.148,3.742 0.734,4.94 -0.411,1.198 -2.207,2.166 -4.104,3.452 1.897,0.216 4.443,0.1 5.148,0.751 C -0.838,-3.725 -0.353,-1.21 0,0 m 0.75,-13.113 c -0.029,0.015 4.574,-3.352 6.208,-2.57 1.663,0.794 -0.632,6.34 -0.662,7.077 1.236,1.14 3.795,3.163 3.795,4.593 0,1.415 -2.117,1.704 -6.207,1.632 -0.661,1.384 -2.53,5.487 -3.988,5.487 -1.558,0 -2.733,-4.461 -2.985,-5.588 -3.767,-0.215 -6.649,-0.519 -6.649,-2.182 0,-1.444 2.984,-3.697 4.736,-4.607 -0.294,-1.632 -1.235,-5.72 -0.162,-6.556 1.369,-1.055 4.545,1.674 5.914,2.714"
             style="fill:#231f20;fill-opacity:1;fill-rule:nonzero;stroke:none"
             id="path3583"
             inkscape:connector-curvature="0" /></g><g
           id="g3585"
           transform="translate(289.87,426.1658)"><path
             d="m 0,0 c 0.57,-3.654 1.965,-8.712 5.597,-8.712 2.023,0 3.705,1.705 5.067,4.598 0.5,-2.644 1.848,-4.598 4.102,-4.611 3.437,-0.015 4.152,5.362 7.358,6.859 1.455,0.679 2.938,0.649 4.499,0.649 4.006,0 4.668,-0.461 4.668,-2.526 0,-0.691 -0.028,-1.671 -0.646,-2.151 -0.705,-0.532 -2.529,-0.517 -3.523,-0.517 -0.942,0 -3.263,0.186 -3.484,1.269 -0.059,0.304 -0.045,0.403 -0.045,0.839 0,0.591 -0.617,0.78 -1.294,0.78 -0.928,0 -1.288,-0.434 -1.288,-0.939 l 0,-8.272 c 0,-0.335 0.162,-0.815 1.17,-0.815 1.163,0 1.398,0.379 1.398,0.955 l 0,4.721 c 0.818,-0.576 1.953,-0.808 4.522,-0.825 4.883,-0.027 5.966,1.707 5.966,4.87 0,2.092 -0.604,3.118 -1.187,3.612 -1.028,0.852 -2.131,1.308 -6.39,1.308 -3.103,0 -4.705,-0.556 -6.024,-1.366 -3.013,-1.847 -4.087,-6.228 -5.642,-6.228 -1.974,0 -2.24,4.592 -2.298,6.735 C 12.483,1.222 10.164,1.323 9.944,0.65 9.258,-1.866 7.577,-6.411 5.758,-6.411 4.022,-6.411 2.999,-2.106 2.643,0.608 2.584,1.02 2.186,1.105 1.657,1.076 0.118,0.992 -0.088,0.608 0,0 m 56.077,0.434 c -2.322,0 -2.76,-4.016 -6.552,-6.023 -1.427,-0.742 -3.351,-1.015 -5.817,-1.015 -3.956,0 -4.877,0.351 -4.877,2.92 0,0.538 0.028,1.131 0.347,1.578 0.662,0.904 2.896,0.948 4.057,0.948 2.732,0 3.055,-0.26 3.055,-1.149 0,-0.869 -0.265,-0.926 -1.979,-0.954 l -1.001,0 c -0.382,0 -0.839,0.041 -0.839,-0.696 0,-0.666 -0.029,-0.996 0.398,-1.083 0.219,-0.058 0.927,-0.102 1.368,-0.102 3.624,0 4.816,1.185 4.816,2.949 0,2.279 -1.146,3.298 -6.054,3.298 -2.555,0 -6.051,-0.353 -6.698,-3.138 -0.192,-0.797 -0.239,-1.433 -0.239,-2.011 0,-4.319 3.793,-4.724 7.926,-4.724 6.154,0 9.506,2.874 11.574,6.533 0.441,-1.894 0.383,-6.477 3.235,-6.477 3.481,0 3.141,7.395 7.692,7.395 0.206,0 0.485,-0.016 0.616,-0.016 0.722,0 0.852,0.639 0.852,1.406 0,0.947 -0.218,1.12 -1.381,1.12 -3.289,0 -5.005,-2.597 -6.3,-5.209 -0.773,-1.573 -1.008,-2.383 -1.245,-2.383 -0.691,0 -0.265,6.833 -2.954,6.833 m 74.217,-12.868 c 1.955,0 3.606,1.826 3.841,3.753 -2.236,-0.087 -5.197,-0.871 -5.197,-2.623 0,-0.563 0.473,-1.13 1.356,-1.13 M 101.442,1.208 c -3.281,0 -5.09,-2.597 -6.387,-5.208 -0.789,-1.574 -1.026,-2.385 -1.262,-2.385 -0.677,0 -0.253,6.834 -2.945,6.834 -2.854,0 -4.696,-6.834 -6.946,-6.834 -0.692,0 -1.003,0.724 -1.003,2.76 l 0,9.063 c 0,0.578 -0.25,0.881 -1.4,0.881 -1.016,0 -1.224,-0.476 -1.224,-0.809 l 0,-5.452 c -0.882,0.665 -3.379,1.034 -5.458,1.034 -4.794,0 -6.239,-2.034 -6.239,-4.89 0,-1.401 0.41,-2.831 1.338,-3.641 1.282,-1.127 3.241,-1.242 4.799,-1.259 1.472,0 3.707,0.118 4.324,0.477 0.369,0.217 0.385,0.52 0.385,0.766 0,0.633 -0.266,1.405 -0.883,1.376 -0.397,-0.017 -1.632,-0.306 -3.989,-0.306 -2.44,0 -3.193,0.839 -3.193,2.907 0,1.553 0.489,2.276 3.901,2.276 1.429,0 3.972,-0.073 4.635,-1.105 0.279,-0.465 0.293,-0.943 0.394,-2.155 0.254,-2.932 1.432,-4.219 3.168,-4.219 3.593,0 4.948,4.263 6.876,6.46 0.442,-1.893 0.384,-6.477 3.237,-6.477 3.487,0 3.234,7.394 7.781,7.394 0.655,0 0.959,-0.058 1.195,-0.058 0.764,0 0.943,0.685 0.943,1.448 0,0.95 -0.237,1.122 -2.047,1.122 m 23.345,-7.724 c -1.516,0.363 -3.105,0.927 -3.105,3.37 0,3.175 2.59,4.238 7.656,4.238 2.239,0 4.237,-0.383 5.786,-1.51 1.853,-1.332 2.073,-3.9 2.016,-5.967 0.909,0.046 2.425,0 3.174,0 0.795,0 0.9,-0.551 0.9,-1.023 0,-0.539 -0.045,-1.273 -0.782,-1.273 -1.117,0 -3.382,0.041 -3.618,0.028 -0.823,-3.461 -3.313,-6.066 -6.582,-6.066 -2.044,0 -3.972,1.142 -3.972,3.312 0,3.058 3.945,4.79 8.125,4.949 0.07,1.072 0.028,2.299 -0.395,3.254 -0.855,1.871 -2.949,2.002 -5.156,2.002 -3.869,0 -4.518,-0.592 -4.518,-2.075 0,-2.137 3.783,-1.489 3.783,-3.108 0,-1.458 -3.268,-2.383 -5.774,-2.383 -3.747,0 -6.354,1.629 -7.175,5.186 -1.194,-3.137 -3.064,-5.143 -5.083,-5.143 -3.631,0 -5.048,5.057 -5.623,8.711 -0.088,0.607 0.148,0.991 1.681,1.077 0.528,0.029 0.928,-0.058 0.986,-0.47 0.355,-2.714 1.387,-7.019 3.121,-7.019 1.811,0 3.488,4.544 4.178,7.062 0.222,0.674 2.561,0.572 2.604,-0.418 0,-5.619 2.326,-7.542 7.773,-6.822 l 0,0.088 z M -0.662,4.655 c 0,3.146 -4.644,3.451 -6.907,3.451 -2.66,0 -5.508,-0.535 -7.86,-1.425 -1.906,-0.709 -4.441,-2.012 -4.441,-4.361 0,-3.06 4.883,-4.158 9.068,-5.192 3.16,-0.782 5.714,-1.418 5.714,-2.674 0,-1.633 -4.361,-1.479 -5.362,-1.479 -4.111,0 -6.682,0.828 -7.047,0.828 -0.78,0 -1.236,-2.082 -0.426,-2.311 2.377,-0.687 4.743,-0.973 7.018,-0.973 5.527,0 8.594,1.132 8.594,3.994 0,2.688 -3.257,3.967 -7.594,5.01 -3.231,0.781 -7.171,1.597 -7.171,2.827 0,1.068 1.516,1.727 2.662,2.161 1.985,0.768 4.45,1.158 6.669,1.144 0.662,0 4.378,0.014 4.378,-1.202 0,-0.304 -0.249,-0.623 -0.809,-0.934 -0.751,-0.403 0.206,-2.311 1.132,-1.921 1.352,0.564 2.382,1.734 2.382,3.057"
             style="fill:#231f20;fill-opacity:1;fill-rule:nonzero;stroke:none"
             id="path3587"
             inkscape:connector-curvature="0" /></g></g></g></g></svg>